<svg xmlns="http://www.w3.org/2000/svg" width="38" height="41" viewBox="0 0 38 41" fill="none">
    <path d="M37.5 20.2868C37.5 30.1157 30.8017 38.216 22.0713 39.7784V26.1629H26.4892H26.9221L26.984 25.7344L27.7551 20.4024L27.8378 19.8308H27.2603H22.0713V17.4163C22.0713 16.3461 22.2373 15.3958 22.5934 14.7317C22.9326 14.0992 23.4321 13.7355 24.1902 13.7355H27.3093H27.8093V13.2355V8.58134V8.1473L27.3796 8.0863C27.3647 8.08419 27.3495 8.08201 27.3337 8.07977C26.7549 7.99737 25.5754 7.82944 23.4128 7.82944C21.033 7.82944 19.0645 8.50287 17.6998 10.0183C16.3439 11.524 15.6595 13.7784 15.6595 16.7823V19.8308H11.4586H10.9586V20.3308V25.6629V26.1629H11.4586H15.6595V39.7267C7.06134 38.0463 0.5 30.0139 0.5 20.2868C0.5 9.32821 8.81375 0.5 19 0.5C29.1862 0.5 37.5 9.32821 37.5 20.2868Z" fill="#524E49" stroke="#524E49"/>
</svg>
