<svg xmlns="http://www.w3.org/2000/svg" width="38" height="41" viewBox="0 0 38 41" fill="none">
    <path d="M11.0802 0C4.97016 0 0 5.28447 0 11.7766V28.5957C0 35.0862 4.97476 40.3658 11.0864 40.3658H26.9198C33.0298 40.3658 38 35.0813 38 28.5891V11.7701C38 5.27958 33.0252 0 26.9136 0H11.0802ZM30.0833 6.72763C30.9573 6.72763 31.6667 7.48112 31.6667 8.40953C31.6667 9.33795 30.9573 10.0914 30.0833 10.0914C29.2093 10.0914 28.5 9.33795 28.5 8.40953C28.5 7.48112 29.2093 6.72763 30.0833 6.72763ZM19 10.0914C24.2393 10.0914 28.5 14.6175 28.5 20.1829C28.5 25.7483 24.2393 30.2743 19 30.2743C13.7607 30.2743 9.5 25.7483 9.5 20.1829C9.5 14.6175 13.7607 10.0914 19 10.0914ZM19 13.4553C17.3203 13.4553 15.7094 14.1641 14.5217 15.4257C13.3339 16.6874 12.6667 18.3986 12.6667 20.1829C12.6667 21.9672 13.3339 23.6784 14.5217 24.94C15.7094 26.2017 17.3203 26.9105 19 26.9105C20.6797 26.9105 22.2906 26.2017 23.4783 24.94C24.6661 23.6784 25.3333 21.9672 25.3333 20.1829C25.3333 18.3986 24.6661 16.6874 23.4783 15.4257C22.2906 14.1641 20.6797 13.4553 19 13.4553Z" fill="#524E49"/>
</svg>
