<?xml version="1.0" encoding="UTF-8"?>
<svg id="Layer_1" data-name="Layer 1" xmlns="http://www.w3.org/2000/svg" viewBox="0 0 318.32 97.45">
  <defs>
    <style>
      .cls-1 {
        fill: #524D49;
        stroke-width: 0;
      }
    </style>
  </defs>
  <g>
    <path class="cls-1" d="M96.06,42.25c-.99.63-3.79,1.62-8.39,3.52-.9.36-3.7,1.35-5.69,1.99-1.99.63-3.61,1.35-6.95,2.17-3.34.81-5.42,1.17-7.22,1.62-1.81.45-2.98,1.08-4.24,1.08s-1.9,0-3.34.27c-1.44.27-4.42.9-5.96,1.08-1.17.09-1.9.36-2.53.36-3.07,0-6.05.81-11.74.81-4.06,0-10.2-.18-12.19-.45-2.35-.36-6.5-.27-7.31-.72s-3.34-.72-6.05-1.35-4.6-1.81-5.15-1.9-3.07-1.17-3.52-1.62-1.62-.9-2.98-1.62c-1.35-.72-2.8-1.99-2.8-2.89s1.44-1.9,2.08-2.8,2.26-1.35,3.16-1.35,4.79,3.7,6.5,4.42.81.99,1.71,1.26c.9.27,4.78,2.08,6.59,2.62s1.9.72,3.16.81,3.16.72,5.51,1.17,5.69.54,6.77.54c.9,0,1.17.18,1.99.18.72,0,7.67-.09,11.28-.09s11.92-1.26,13-1.35c1.08-.09,2.62-.09,3.52-.45.9-.36,2.8-.45,7.13-1.26s14.8-4.06,15.08-4.42c.27-.36,2.08-1.08,6.41-2.62.9-.27,4.24-1.53,5.15-2.17l2.62-1.26c.54-.81.81-1.35,1.17-1.71.54-.63,1.26-2.53,1.81-3.52.45-.9,1.17-2.62,2.8-5.06,1.62-2.44,3.25-5.51,4.15-6.32.72-.63,1.99-2.62,2.71-4.24.63-1.71,3.88-5.6,4.51-6.41.72-.81,2.26-1.9,3.34-2.62.81-.9.72-1.35,1.81-2.35.54-.36,1.8-.9,3.52-2.8,1.71-1.81,3.79-2.8,6.05-2.8,2.08,0,3.52,1.53,3.61,2.71,0,.54.09.9.09,1.35s-.09.99-.45,1.53c-.63,1.17-.45,1.53-.72,2.62-.27,1.26-1.26,2.98-1.8,3.34-.45.36-1.35,1.26-1.54,2.08-.27.9-1.81,2.44-2.35,3.25-.54.72-4.06,4.69-4.69,5.51-.81.9-1.81,1.81-3.34,3.34-1.62,1.44-5.33,4.42-5.87,4.96-.63.63-1.44.54-2.17.99-.54.45-.18.63-.63,1.17-.36.36-3.07,2.26-3.97,3.61-.54.72-.81.36-1.44,1.53-.54,1.08-1.26,3.07-1.72,4.42-.36.99-1.26,2.53-1.26,3.43-.45.9-2.35,4.51-2.35,5.33.45,0,2.62-2.08,3.07-2.53,2.08-2.17,3.88-4.15,4.24-4.15s1.35-1.17,2.53-2.44c1.35-1.53,3.97-3.43,5.06-4.87.99-1.44,2.53-2.44,4.33-3.43.81-.54,1.71-.72,2.62-.72,1.08,0,2.17.27,3.07.63,1.08.36,1.26,1.44,1.26,2.53,0,.72-.09,1.35-.09,1.81,0,1.26-.18,2.17-.54,3.52-.27.9-.27,2.17-.27,3.34,0,.72-.09,1.44-.09,2.08,0,1.62.81,3.16,1.62,3.52,1.08.36,2.35.54,3.43.54,1.54,0,1.9,0,4.06-.36.63-.09,4.51-.9,5.33-1.26,1.17-.54,2.53-1.35,3.7-1.71.45-.09,1.17-.36,1.44-.54.27-.27.99-.72,1.08-.81.36-.18.9-.36,1.35-.36s1.08.27,1.08.9c0,.36-.27.54-.36.63l-3.25,1.53c-1.35.63-2.62,1.08-4.15,1.81-.72.27-1.81.54-2.35.72-1.35.36-3.16.81-4.78,1.08-.81.09-4.15.36-5.42.36-2.89,0-4.6-.54-6.5-1.62-.9-.36-2.62-2.44-2.62-3.34-.18-.54-.36-1.17-.36-1.99,0-.45.09-.99.27-1.53.27-1.08.09-2.17.45-3.34,0-1.08,1.44-2.17,1.44-3.52-.09-.45-.54-.72-1.17-.72-.36,0-.72.09-1.08.27-.99.54-2.62,2.26-3.79,3.25-.99.9-2.08,2.26-3.34,3.16-1.17.81-2.26,2.08-3.25,2.71s-2.17,1.53-2.44,2.35c-.27.72-3.07,3.7-3.88,4.51s-2.89,1.81-3.88,2.71c-.9.9-2.44,1.9-3.34,1.9-1.71,0-2.26-1.17-2.35-2.08,0-.99.27-2.44,1.35-4.06.9-1.71.27-4.06,1.81-5.6,1.71-1.53,1.81-2.8,2.71-6.05-.9.54-3.79,1.62-4.88,2.26h.01ZM111.32,31.78c.81-.63,4.79-3.07,5.78-4.24,1.08-.9,2.89-1.81,3.7-2.71.99-.99,1.44-1.35,1.81-1.62.36-.45,3.07-4.69,4.24-5.6,1.08-.99,1.71-1.81,2.8-2.71s.99-2.26,1.62-2.98,1.62-3.16,1.99-3.97c.18-.36.18-.99.18-1.53,0-.99-.09-1.99-.18-2.44,0-.27-.36-.54-.9-.54-.36,0-.72.09-1.17.45-.72.81-2.35,1.9-3.07,2.89-.81.99-1.9,1.26-2.62,2.98-.99,1.62-2.53,3.07-3.07,3.97-.63.99-1.71,2.35-2.8,3.7-.72,1.08-.72,1.26-.9,1.81,0,.09-.09.18-.09.27-.09.81-1.54,2.26-2.08,3.16-.54,1.08-4.51,8.03-5.24,9.12h0Z"/>
    <path class="cls-1" d="M208.9,50.82c-.72.27-1.81.54-2.35.72-1.35.36-3.16.81-4.78,1.08-.81.09-4.15.36-5.42.36-2.89,0-4.6-.54-6.5-1.62-.9-.36-2.62-2.44-2.62-3.34-.18-.54-.36-1.17-.36-1.99,0-.45.09-.99.27-1.53.27-1.08.09-2.17.45-3.34,0-1.08,1.44-2.17,1.44-3.52-.09-.45-.54-.72-1.17-.72-.36,0-.72.09-1.08.27-.99.54-2.62,2.26-3.79,3.25-.99.9-2.08,2.26-3.34,3.16-1.17.81-2.26,2.08-3.25,2.71s-2.17,1.53-2.44,2.35c-.27.72-3.07,3.7-3.88,4.51s-2.89,1.81-3.88,2.71c-.9.9-2.44,1.9-3.34,1.9-1.72,0-2.26-1.17-2.35-2.08,0-.99.27-2.44,1.35-4.06.9-1.71.27-4.06,1.81-5.6,1.71-1.53,1.26-2.35,2.17-5.6-1.44.63-3.43,1.53-4.06,1.9-1.08.54-3.16,1.44-3.88,1.72-1.17.45-3.34,1.44-3.97,1.71-.63.36-1.44.72-2.26,1.08-.18.09-1.08.54-1.44.54-.45,0-1.17-.36-1.26-.81,0-.36.63-.54,1.26-.9.36-.36.72-.36,1.08-.54.9-.09,1.9-.63,2.08-.9.27-.45,2.08-1.17,3.43-1.71,3.52-1.44,4.51-2.08,5.42-2.53,1.17-.54,1.35-.36,2.35-.9l2.53-1.26c.54-.81.81-1.35,1.17-1.71.54-.63,1.26-2.53,1.81-3.52.45-.9,1.17-2.62,2.8-5.06,1.62-2.44,3.25-5.51,4.15-6.32.72-.63,1.99-2.62,2.71-4.24.63-1.71,3.88-5.6,4.51-6.41.72-.81,2.26-1.9,3.34-2.62.81-.9.72-1.35,1.8-2.35.54-.36,1.81-.9,3.52-2.8,1.72-1.81,3.79-2.8,6.05-2.8,2.08,0,3.52,1.53,3.61,2.71,0,.54.09.9.09,1.35s-.09.99-.45,1.53c-.63,1.17-.45,1.53-.72,2.62-.27,1.26-1.26,2.98-1.81,3.34-.45.36-1.35,1.26-1.53,2.08-.27.9-1.81,2.44-2.35,3.25-.54.72-4.06,4.69-4.69,5.51-.81.9-1.81,1.81-3.34,3.34-1.62,1.44-5.33,4.42-5.87,4.96-.63.63-1.44.54-2.17.99-.54.45-.18.63-.63,1.17-.36.36-3.07,2.26-3.97,3.61-.54.72-.81.36-1.44,1.53-.54,1.08-1.26,3.07-1.71,4.42-.36.99-1.26,2.53-1.26,3.43-.45.9-2.35,4.51-2.35,5.33.45,0,2.62-2.08,3.07-2.53,2.08-2.17,3.88-4.15,4.24-4.15s1.35-1.17,2.53-2.44c1.35-1.53,3.97-3.43,5.06-4.87.99-1.44,2.53-2.44,4.33-3.43.81-.54,1.71-.72,2.62-.72,1.08,0,2.17.27,3.07.63,1.08.36,1.26,1.44,1.26,2.53,0,.72-.09,1.35-.09,1.81,0,1.26-.18,2.17-.54,3.52-.27.9-.27,2.17-.27,3.34,0,.72-.09,1.44-.09,2.08,0,1.62.81,3.16,1.62,3.52,1.08.36,2.35.54,3.43.54,1.53,0,1.9,0,4.06-.36.63-.09,6.68-1.9,7.49-2.26,1.26-.72,2.62-1.35,3.97-2.08,1.35-.72,6.05-2.44,7.67-2.71s2.44-.54,3.07-.9,6.5-1.17,12.1-1.17,11.1.81,11.64,1.17,1.72.9,3.16,1.08,4.06.72,6.23,1.62,1.99.9,2.62.9,1.17.45,1.99.63c.81.18,4.78.9,5.96,1.62s1.81.81,2.62.9,6.41,1.17,8.39,1.53c1.99.36,5.15.45,8.12.45s4.69-1.17,5.87-.81c1.17.36,1.08.36,2.8-.18,1.71-.54,5.51-2.8,6.77-2.89,1.26-.09,2.71-1.9,3.97-2.53s2.71-2.53,3.97-3.43,2.35-3.07,3.16-3.07,1.35.18,1.9.81c.54.63,1.08,1.08,1.35,1.26.27.18.81.9.81,1.9s-1.9,3.34-3.52,4.51-3.7,1.53-4.24,1.99c-.54.45-1.44.99-2.17,1.35-.72.36-5.33,2.08-7.22,2.8s-9.03,1.53-13.54,1.53-7.94-.99-8.67-.9c-.72.09-1.62-.18-2.17-.36-.54-.18-6.23-1.53-6.95-1.9s-2.17-.54-2.98-.63-2.35-.9-3.16-1.26-6.77-2.26-7.58-2.53-.63-.45-1.44-.54-1.35-.54-2.35-.72-7.67-1.9-9.93-2.08-7.4-.27-9.57-.18c-2.17.09-5.42.36-6.14.45s-2.44.45-3.43.81-1.8.72-2.89.99c-1.08.27-3.88,1.35-4.69,1.81-.99.54-1.99.9-2.98,1.44l-3.79,1.71v.04ZM176.76,31.77c.81-.63,4.78-3.07,5.78-4.24,1.08-.9,2.89-1.81,3.7-2.71.99-.99,1.44-1.35,1.81-1.62.36-.45,3.07-4.69,4.24-5.6,1.08-.99,1.72-1.81,2.8-2.71s.99-2.26,1.62-2.98,1.62-3.16,1.99-3.97c.18-.36.18-.99.18-1.53,0-.99-.09-1.99-.18-2.44,0-.27-.36-.54-.9-.54-.36,0-.72.09-1.17.45-.72.81-2.35,1.9-3.07,2.89-.81.99-1.9,1.26-2.62,2.98-.99,1.62-2.53,3.07-3.07,3.97-.63.99-1.71,2.35-2.8,3.7-.72,1.08-.72,1.26-.9,1.81,0,.09-.09.18-.09.27-.09.81-1.54,2.26-2.08,3.16-.54,1.08-4.51,8.03-5.24,9.12h0Z"/>
  </g>
  <g>
    <path class="cls-1" d="M23.65,77.79h1.79v8.45h10.72v-8.45h1.79v19.17h-1.79v-9.1h-10.72v9.1h-1.79s0-19.17,0-19.17Z"/>
    <path class="cls-1" d="M50.52,77.79h11.73v1.62h-9.94v6.82h9.32v1.62h-9.32v7.47h10.37v1.62h-12.16v-19.17.02Z"/>
    <path class="cls-1" d="M73.89,77.79h1.79v19.17h-1.79v-19.17Z"/>
    <path class="cls-1" d="M88,77.79h5.93c1.66,0,3.07.2,4.22.61,1.16.41,2.12.93,2.88,1.56.77.63,1.37,1.33,1.81,2.1s.77,1.5.97,2.21c.21.7.34,1.34.39,1.91s.08.97.08,1.21-.03.64-.08,1.21-.18,1.21-.39,1.91-.53,1.44-.97,2.21-1.05,1.47-1.81,2.1c-.77.63-1.73,1.15-2.88,1.56-1.16.41-2.56.61-4.22.61h-5.93v-19.2ZM89.79,95.34h3.68c1.26,0,2.45-.16,3.55-.47,1.1-.32,2.06-.8,2.87-1.45s1.45-1.48,1.92-2.48.7-2.19.7-3.56-.23-2.56-.7-3.56-1.11-1.83-1.92-2.48-1.77-1.13-2.87-1.45c-1.1-.32-2.28-.47-3.55-.47h-3.68v15.92h0Z"/>
    <path class="cls-1" d="M115.62,77.79h1.79v19.17h-1.79v-19.17Z"/>
    <path class="cls-1" d="M144.33,77.79h1.79v8.45h10.72v-8.45h1.79v19.17h-1.79v-9.1h-10.72v9.1h-1.79v-19.17Z"/>
    <path class="cls-1" d="M184.81,89.63c0,1.03-.12,2.01-.35,2.95-.24.94-.63,1.77-1.18,2.49-.55.72-1.27,1.3-2.17,1.73-.89.43-1.99.65-3.29.65s-2.4-.22-3.29-.65-1.62-1.01-2.17-1.73-.94-1.55-1.18-2.49c-.24-.94-.35-1.92-.35-2.95v-11.83h1.79v11.37c0,.69.06,1.42.19,2.19.13.78.37,1.5.74,2.17.37.67.89,1.22,1.57,1.65.68.43,1.57.65,2.69.65s2.02-.22,2.69-.65c.68-.43,1.2-.98,1.57-1.65.37-.67.62-1.39.75-2.17s.19-1.51.19-2.19v-11.37h1.79v11.83h0Z"/>
    <path class="cls-1" d="M196.78,77.79h5.93c1.66,0,3.07.2,4.22.61s2.12.93,2.88,1.56c.77.63,1.37,1.33,1.81,2.1s.77,1.5.97,2.21c.21.7.34,1.34.39,1.91s.08.97.08,1.21-.03.64-.08,1.21-.19,1.21-.39,1.91c-.21.7-.53,1.44-.97,2.21s-1.05,1.47-1.81,2.1c-.77.63-1.73,1.15-2.88,1.56s-2.56.61-4.22.61h-5.93v-19.2ZM198.57,95.34h3.68c1.26,0,2.45-.16,3.55-.47,1.1-.32,2.06-.8,2.87-1.45s1.45-1.48,1.92-2.48.7-2.19.7-3.56-.24-2.56-.7-3.56c-.47-1-1.11-1.83-1.92-2.48s-1.77-1.13-2.87-1.45c-1.1-.32-2.28-.47-3.55-.47h-3.68v15.92h0Z"/>
    <path class="cls-1" d="M224.92,93.42c.47.81,1.08,1.42,1.83,1.81.75.4,1.6.6,2.56.6.6,0,1.16-.09,1.68-.27.52-.18.98-.43,1.37-.76.39-.33.69-.72.92-1.18.23-.46.34-.98.34-1.56,0-.67-.14-1.22-.42-1.65s-.65-.79-1.12-1.07c-.47-.28-1-.52-1.58-.72s-1.19-.4-1.81-.6-1.23-.42-1.81-.68c-.59-.25-1.11-.58-1.58-.99s-.84-.92-1.12-1.53-.42-1.37-.42-2.27c0-.85.17-1.6.5-2.26.33-.66.79-1.21,1.35-1.65s1.22-.78,1.96-1c.74-.23,1.52-.34,2.33-.34,1.05,0,2.02.19,2.91.56s1.67.99,2.32,1.85l-1.54,1.11c-.45-.63-.98-1.11-1.58-1.42-.6-.32-1.32-.47-2.15-.47-.58,0-1.13.08-1.65.23s-.98.38-1.37.68c-.39.3-.7.67-.93,1.12-.23.45-.35.98-.35,1.6,0,.96.24,1.69.73,2.21.49.51,1.1.92,1.83,1.22s1.53.56,2.38.79c.86.23,1.65.53,2.38.91s1.34.91,1.83,1.58c.49.68.73,1.61.73,2.8,0,.87-.16,1.63-.49,2.3-.32.67-.76,1.23-1.31,1.69s-1.19.81-1.91,1.04-1.47.35-2.25.35c-1.26,0-2.43-.22-3.49-.66-1.07-.44-1.98-1.19-2.74-2.23l1.71-1.14h-.04Z"/>
    <path class="cls-1" d="M245.53,87.38c0-1.46.24-2.81.73-4.03s1.17-2.29,2.03-3.18,1.91-1.59,3.13-2.1,2.56-.76,4.02-.76,2.8.25,4.02.76,2.26,1.21,3.13,2.1,1.54,1.95,2.03,3.18.73,2.57.73,4.03-.24,2.81-.73,4.05c-.49,1.24-1.17,2.3-2.03,3.2-.87.89-1.91,1.59-3.13,2.08-1.22.5-2.56.74-4.02.74s-2.8-.25-4.02-.74c-1.22-.5-2.26-1.19-3.13-2.08s-1.54-1.96-2.03-3.2c-.49-1.24-.73-2.59-.73-4.05ZM247.32,87.38c0,1.19.19,2.3.57,3.33s.92,1.92,1.62,2.68,1.56,1.35,2.56,1.79c1,.43,2.12.65,3.37.65s2.37-.22,3.37-.65,1.85-1.03,2.56-1.79,1.25-1.65,1.62-2.68c.38-1.03.57-2.14.57-3.33s-.19-2.3-.57-3.33-.92-1.92-1.62-2.68-1.56-1.35-2.56-1.79c-1-.43-2.13-.65-3.37-.65s-2.37.22-3.37.65-1.86,1.03-2.56,1.79-1.25,1.65-1.62,2.68c-.38,1.03-.57,2.14-.57,3.33Z"/>
    <path class="cls-1" d="M276.67,77.79h2.3l11.67,16.79h.05v-16.79h1.79v19.17h-2.3l-11.67-16.79h-.05v16.79h-1.79v-19.17Z"/>
  </g>
</svg>
