<svg xmlns="http://www.w3.org/2000/svg" width="48" height="48" viewBox="0 0 48 48" fill="none">
    <path d="M24 4.80005C13.3968 4.80005 4.8 13.3968 4.8 24C4.8 32.1344 9.8608 39.0816 17.0032 41.8784C16.8352 40.3601 16.6832 38.0289 17.0704 36.3713C17.4192 34.8736 19.3216 26.8272 19.3216 26.8272C19.3216 26.8272 18.7472 25.6768 18.7472 23.9776C18.7472 21.3072 20.2944 19.3152 22.2208 19.3152C23.8592 19.3152 24.6496 20.5456 24.6496 22.0192C24.6496 23.6672 23.6016 26.1296 23.0592 28.4112C22.6064 30.3232 24.0176 31.8817 25.9024 31.8817C29.3152 31.8817 31.9376 28.2832 31.9376 23.0896C31.9376 18.4928 28.6352 15.2784 23.9184 15.2784C18.456 15.2784 15.2496 19.376 15.2496 23.6112C15.2496 25.2608 15.8848 27.0304 16.6784 27.9937C16.8352 28.184 16.8576 28.3504 16.8112 28.5441C16.6656 29.1504 16.3424 30.4544 16.2784 30.7216C16.1952 31.0737 16 31.1472 15.6368 30.9776C13.2384 29.8608 11.7392 26.3552 11.7392 23.5392C11.7392 17.4832 16.1392 11.92 24.4256 11.92C31.0864 11.92 36.2624 16.6656 36.2624 23.0096C36.2624 29.6272 32.0896 34.952 26.2992 34.952C24.3536 34.952 22.5248 33.9408 21.8992 32.7472C21.8992 32.7472 20.936 36.4128 20.7024 37.312C20.2688 38.9792 19.0992 41.0704 18.3152 42.3456C20.112 42.8993 22.0208 43.2001 24 43.2001C34.6032 43.2001 43.2 34.6032 43.2 24C43.2 13.3968 34.6032 4.80005 24 4.80005Z" fill="#524E49"/>
</svg>
