<svg xmlns="http://www.w3.org/2000/svg" data-name="Layer 1" width="18" height="18"><rect id="backgroundrect" width="100%" height="100%" x="0" y="0" fill="none" stroke="none"/><defs><style>.cls-1{fill:#060606;}.cls-2{fill:#333232;}</style></defs><title>Heidi Hudson-logo</title><g class="currentLayer" style=""><title>Layer 1</title><path class="cls-1" d="M5.069999084472656,8.280001068115233 h8.28 v-5.1 a6,6 0 0 0 -0.17,-1.8 a1.18,1.18 0 0 0 -0.55,-0.5700000000000001 a2.42,2.42 0 0 0 -1.2,-0.32000000000000006 H10.79999908447266 V0.0000010681152318170462 h7.63 v0.49000000000000005 H17.79999908447266 a2.5,2.5 0 0 0 -1.2,0.30000000000000004 a1.1,1.1 0 0 0 -0.5700000000000001,0.6400000000000001 a6.34,6.34 0 0 0 -0.15000000000000002,1.7400000000000002 V14.680001068115232 a5.9,5.9 0 0 0 0.17,1.79 a1.18,1.18 0 0 0 0.54,0.5700000000000001 a2.49,2.49 0 0 0 1.21,0.32000000000000006 h0.6300000000000001 V17.880001068115234 H10.79999908447266 V17.350001068115233 h0.6300000000000001 a1.8900000000000001,1.8900000000000001 0 0 0 1.59,-0.6400000000000001 a3.87,3.87 0 0 0 0.33000000000000007,-2 V9.250001068115232 H5.069999084472656 V14.680001068115232 a5.9,5.9 0 0 0 0.17,1.79 a1.17,1.17 0 0 0 0.55,0.5700000000000001 a2.42,2.42 0 0 0 1.2,0.32000000000000006 h0.6400000000000001 V17.880001068115234 H-9.155273446026513e-7 V17.350001068115233 h0.6300000000000001 a1.9,1.9 0 0 0 1.6,-0.6400000000000001 a4,4 0 0 0 0.32000000000000006,-2 V3.1700010681152335 a6,6 0 0 0 -0.17,-1.8 a1.19,1.19 0 0 0 -0.54,-0.5700000000000001 a2.49,2.49 0 0 0 -1.21,-0.32000000000000006 H-9.155273446026513e-7 V0.0000010681152318170462 h7.640000000000001 v0.49000000000000005 H6.989999084472657 a2.5,2.5 0 0 0 -1.2,0.30000000000000004 a1.1400000000000001,1.1400000000000001 0 0 0 -0.5700000000000001,0.6400000000000001 a6.09,6.09 0 0 0 -0.16000000000000003,1.7400000000000002 v5.1 z" id="svg_1"/></g></svg>
