<svg width="20" height="21" viewBox="0 0 20 21" fill="none" xmlns="http://www.w3.org/2000/svg">
  <path id="Vector" d="M15.34 3.633C15.1027 3.633 14.8707 3.7069 14.6733 3.84535C14.476 3.9838 14.3222 4.18058 14.2313 4.41082C14.1405 4.64105 14.1168 4.8944 14.1631 5.13881C14.2094 5.38323 14.3236 5.60774 14.4915 5.78395C14.6593 5.96017 14.8731 6.08017 15.1059 6.12879C15.3387 6.17741 15.5799 6.15245 15.7992 6.05709C16.0185 5.96172 16.2059 5.80022 16.3378 5.59302C16.4696 5.38581 16.54 5.1422 16.54 4.893C16.54 4.55883 16.4136 4.23834 16.1885 4.00205C15.9635 3.76575 15.6583 3.633 15.34 3.633ZM19.94 6.174C19.9206 5.30281 19.7652 4.44087 19.48 3.6225C19.2257 2.92229 18.83 2.28824 18.32 1.764C17.8248 1.2258 17.2196 0.812885 16.55 0.5565C15.7727 0.247969 14.9508 0.0810705 14.12 0.0629999C13.06 -5.86733e-08 12.72 0 10 0C7.28 0 6.94 -5.86733e-08 5.88 0.0629999C5.04915 0.0810705 4.22734 0.247969 3.45 0.5565C2.78168 0.815481 2.17693 1.22804 1.68 1.764C1.16743 2.28394 0.774176 2.91946 0.53 3.6225C0.236161 4.43871 0.07721 5.30161 0.0599999 6.174C-5.58794e-08 7.287 0 7.644 0 10.5C0 13.356 -5.58794e-08 13.713 0.0599999 14.826C0.07721 15.6984 0.236161 16.5613 0.53 17.3775C0.774176 18.0805 1.16743 18.7161 1.68 19.236C2.17693 19.772 2.78168 20.1845 3.45 20.4435C4.22734 20.752 5.04915 20.9189 5.88 20.937C6.94 21 7.28 21 10 21C12.72 21 13.06 21 14.12 20.937C14.9508 20.9189 15.7727 20.752 16.55 20.4435C17.2196 20.1871 17.8248 19.7742 18.32 19.236C18.8322 18.7137 19.2283 18.0791 19.48 17.3775C19.7652 16.5591 19.9206 15.6972 19.94 14.826C19.94 13.713 20 13.356 20 10.5C20 7.644 20 7.287 19.94 6.174ZM18.14 14.7C18.1327 15.3665 18.0178 16.0269 17.8 16.653C17.6403 17.11 17.3839 17.5228 17.05 17.8605C16.7256 18.2075 16.3332 18.4763 15.9 18.648C15.3037 18.8766 14.6748 18.9974 14.04 19.005C13.04 19.0575 12.67 19.068 10.04 19.068C7.41 19.068 7.04 19.068 6.04 19.005C5.38089 19.018 4.72459 18.9114 4.1 18.69C3.68578 18.5095 3.31136 18.2414 3 17.9025C2.66809 17.5652 2.41484 17.1519 2.26 16.695C2.01586 16.0599 1.88044 15.3845 1.86 14.7C1.86 13.65 1.8 13.2615 1.8 10.5C1.8 7.7385 1.8 7.35 1.86 6.3C1.86448 5.61861 1.98295 4.94334 2.21 4.305C2.38605 3.86181 2.65627 3.46674 3 3.15C3.30381 2.78898 3.67929 2.50225 4.1 2.31C4.70955 2.07905 5.352 1.95833 6 1.953C7 1.953 7.37 1.89 10 1.89C12.63 1.89 13 1.89 14 1.953C14.6348 1.96064 15.2637 2.08136 15.86 2.31C16.3144 2.48708 16.7223 2.77499 17.05 3.15C17.3777 3.47254 17.6338 3.86687 17.8 4.305C18.0223 4.94438 18.1373 5.61937 18.14 6.3C18.19 7.35 18.2 7.7385 18.2 10.5C18.2 13.2615 18.19 13.65 18.14 14.7ZM10 5.1135C8.98581 5.11558 7.99496 5.43325 7.15265 6.02639C6.31035 6.61953 5.65438 7.46151 5.26763 8.44594C4.88089 9.43038 4.78072 10.5131 4.97979 11.5573C5.17886 12.6015 5.66824 13.5603 6.38608 14.3125C7.10392 15.0648 8.01801 15.5768 9.01286 15.7838C10.0077 15.9907 11.0387 15.8835 11.9755 15.4755C12.9123 15.0675 13.7129 14.3771 14.2761 13.4915C14.8394 12.6059 15.14 11.5649 15.14 10.5C15.1413 9.79136 15.0092 9.08944 14.7512 8.4346C14.4933 7.77977 14.1146 7.18495 13.6369 6.68435C13.1592 6.18376 12.5919 5.78726 11.9678 5.51768C11.3436 5.24809 10.6749 5.11073 10 5.1135ZM10 13.9965C9.34139 13.9965 8.69757 13.7914 8.14995 13.4072C7.60234 13.023 7.17552 12.477 6.92348 11.8381C6.67144 11.1992 6.6055 10.4961 6.73398 9.81787C6.86247 9.13961 7.17963 8.51659 7.64533 8.0276C8.11104 7.53861 8.70439 7.2056 9.35035 7.07068C9.99631 6.93577 10.6659 7.00501 11.2743 7.26965C11.8828 7.5343 12.4029 7.98245 12.7688 8.55745C13.1347 9.13244 13.33 9.80846 13.33 10.5C13.33 10.9592 13.2439 11.4138 13.0765 11.8381C12.9092 12.2623 12.6639 12.6477 12.3547 12.9724C12.0454 13.2971 11.6784 13.5546 11.2743 13.7303C10.8703 13.9061 10.4373 13.9965 10 13.9965Z" fill="white"/>
</svg>
